<svg version="1.0" xmlns="http://www.w3.org/2000/svg"
 width="256.000000pt" height="256.000000pt" viewBox="0 0 256.000000 256.000000"
 preserveAspectRatio="xMidYMid meet">
<metadata>
Created by potrace 1.15, written by Peter Selinger 2001-2017
</metadata>
<g transform="translate(0.000000,256.000000) scale(0.100000,-0.100000)"
fill="#FFFFFF" stroke="none">
<path d="M1810 2189 c-14 -4 -85 -26 -158 -49 -146 -46 -171 -64 -153 -113 10
-26 49 -45 80 -38 7 1 12 -2 10 -7 -9 -25 -144 -172 -239 -260 -259 -242 -450
-393 -834 -660 -52 -36 -61 -51 -52 -86 7 -28 61 -51 92 -40 57 21 463 317
664 485 157 131 378 346 450 438 58 74 70 83 70 52 0 -25 37 -51 72 -51 29 0
68 30 68 53 0 29 -33 263 -39 273 -4 7 -15 8 -31 3z"/>
<path d="M1990 1300 l0 -760 100 0 100 0 0 760 0 760 -100 0 -100 0 0 -760z"/>
<path d="M1640 1135 l0 -595 100 0 100 0 0 595 0 595 -100 0 -100 0 0 -595z"/>
<path d="M1310 960 l0 -420 100 0 100 0 0 420 0 420 -100 0 -100 0 0 -420z"/>
<path d="M970 780 l0 -240 100 0 100 0 0 240 0 240 -100 0 -100 0 0 -240z"/>
<path d="M610 685 l0 -145 100 0 100 0 0 145 0 145 -100 0 -100 0 0 -145z"/>
<path d="M310 435 l0 -75 970 0 970 0 0 75 0 75 -970 0 -970 0 0 -75z"/>
</g>
</svg>
